# xmcd CD database file
#
# Track frame offsets:
#	150
#	10895
#	25782
#	39060
#	51887
#	62160
#	74377
#	83605
#	96185
#	109520
#	120475
#	129795
#	142517
#	153092
#	167600
#	177142
#	188837
#	200857
#	215062
#	225555
#
# Disc length: 3193 seconds
#
# Revision: 1
# Processed by: cddbd v1.5.2PL0 Copyright (c) Steve Scherf et al.
# Submitted via: CDex 1.70beta2
#
DISCID=f80c7714
DTITLE=varios - Once Upon aTime in the West
DYEAR=1900
DGENRE=Soundtracks
TTITLE0=Bonanza - Evans/Livinstone
TTITLE1=Once Upon a Time in the West - Morricone
TTITLE2=The Good, The Bad and The Ugly - Morricone
TTITLE3=The Magnificent seven - Bernstein
TTITLE4=The Green Leaves of Summer - Tiomkim
TTITLE5=High Noon - Tiomkin/Washington
TTITLE6=A Fist full of Dollars - Morricone
TTITLE7=The Theme from Hondo - Markowitz
TTITLE8=The Man with the Harmonica - Morricone
TTITLE9=A Professional Gun - Morricone
TTITLE10=Yankee Doodle - Copyright Control
TTITLE11=Dynamite Ringo - A Loore
TTITLE12=Return of the Seven - Bernstien
TTITLE13=Wandering Star - Lowe
TTITLE14=Hang 'EM High - Frontiere
TTITLE15=The Man From Laramie - Lee/Washington
TTITLE16=How The West was Won - Newman/Darby
TTITLE17=The Alamo - Timkin/Webster
TTITLE18=The Commancheros - Bernstein
TTITLE19=True Grit - Bernstein
EXTD=
EXTT0=
EXTT1=
EXTT2=
EXTT3=
EXTT4=
EXTT5=
EXTT6=
EXTT7=
EXTT8=
EXTT9=
EXTT10=
EXTT11=
EXTT12=
EXTT13=
EXTT14=
EXTT15=
EXTT16=
EXTT17=
EXTT18=
EXTT19=
PLAYORDER=
